<svg id="Lag_1" data-name="Lag 1" xmlns="http://www.w3.org/2000/svg" viewBox="0 0 83.65 144.58"><defs><style>.cls-1{fill:none;stroke:#000;stroke-linecap:round;stroke-linejoin:round;stroke-width:2px;}</style></defs><title>beer3</title><path class="cls-1" d="M42.58,127.35c-4.9,1.93-10,.64-15,1-1.33.09-2.95-.47-3.94.11-2,1.16-4.67,2.61-3.93,5.37s2.89,4.63,6.37,4.58q17.25-.21,34.5,0c3.75.05,5.73-2.28,5.77-5.06s-2.3-5.06-5.77-5c-3.67,0-7.34,0-11,0a13.08,13.08,0,0,1-6-1"/><path class="cls-1" d="M16.58,37.35a32.76,32.76,0,0,1-4.11,12.44c-12.53,21.34,2.63,46.88,23,50.89,6.25,1.23,12,1.2,17.5-.54A32.75,32.75,0,0,0,69.63,88.89c8.56-11.16,11.13-22.84,5.05-36.08-2.28-5-4.71-10-5.6-15.46"/><path class="cls-1" d="M28.58,19.85c1-1.5,2.08-3,3-4.51,2.57-4.42,11.24-6.25,15-.51a50.79,50.79,0,0,0,3.65,4.35c4.78-3.13,8.83-2.32,11.82,2.67.88,1.47,2.3,1.09,3.5,1,4.31-.44,6.94,2.1,7.81,5.58.68,2.67-1,5.31-3.73,7.06-.91.59-1.16,1.1-2.58,1-6.15-.32-12.33-.15-18.49-.14s-6.81.58-7,7c-.08,3.34-1.18,5.79-4.51,7a7.3,7.3,0,0,1-8.45-2.08c-1.29-1.39-1.49-3.49-1.56-5.44s-.17-3.67-.25-5.38A13.63,13.63,0,0,0,17.17,37c-3.88-4.49-4.61-7.85-2.59-11.61a12.38,12.38,0,0,1,11.5-6.06c2.81.21,3.88,1.37,3.5,4.06"/><path class="cls-1" d="M43.08,103.35v23.5"/></svg>