<svg id="Lag_1" data-name="Lag 1" xmlns="http://www.w3.org/2000/svg" viewBox="0 0 77.11 189.11"><defs><style>.cls-1{fill:none;stroke:#000;stroke-linecap:round;stroke-linejoin:round;stroke-width:2px;}</style></defs><title>beer4</title><path class="cls-1" d="M29.68,15.51c-5.6-5-11.75-3.81-13.54,3a8.06,8.06,0,0,1-3.2,5C9.8,25.93,7.85,28.93,9.47,33c1.37,3.43-1.22,6.09-1.85,8.95C3.68,59.78,6.69,76.42,14.46,92.5a94.9,94.9,0,0,1,9.49,37A36.56,36.56,0,0,1,16.84,153c-4,5.58-4.35,11.73-4.36,18.06,0,3.18,3.9,6.42,8,6.46,11.84.12,23.67.16,35.5,0,6-.09,7.58-3.53,8.28-8.91,1-7.77-2.91-13.19-6.32-19-6.23-10.66-5.58-21.63-2.53-33C58.26,105.62,63.5,95.65,66.91,85c5-15.59,6.13-31.43,2.48-47.48-.39-1.74-.82-3.44.08-5,1.48-2.54-.22-4.71-.57-7a7.06,7.06,0,0,0-4.5-5.43c-4.34-1.82-4.81-9.31-11.48-7.62-2.12.54-4.6.3-4.49,3.54"/><path class="cls-1" d="M67.93,35c-4.16,0-8.33.09-12.5,0-3.57-.1-5.11,1.46-5,5a29.62,29.62,0,0,1-.54,7.48c-.89,3.7-3.52,5.79-7.41,5.47-3.54-.3-6-2.18-6.49-6-.24-1.83-.94-3.88-.38-5.45.84-2.32-.12-4.08-.65-6.08-8.11-1.37-16.37.46-24.49-1"/><path class="cls-1" d="M62.93,167.51c-16.33-.19-32.66-1.12-49,0"/><path class="cls-1" d="M48.93,13.51a17.88,17.88,0,0,1-2-2c-4.06-5.71-11.78-5.45-16,1A10.62,10.62,0,0,1,29.43,14"/></svg>