<svg id="Lag_1" data-name="Lag 1" xmlns="http://www.w3.org/2000/svg" viewBox="0 0 97.71 134.94"><defs><style>.cls-1{fill:none;stroke:#000;stroke-linecap:round;stroke-linejoin:round;stroke-width:2px;}</style></defs><title>beer1</title><path class="cls-1" d="M9.7,39.21c-.17,1.83-.48,3.67-.48,5.5,0,22.67,0,45.33-.06,68,0,3.36.8,6.6.67,10s3.44,6.42,7.37,6.45q25,.15,50,0c4.37,0,6.89-3.44,7.09-7.44.31-6.34.58-12.71,1.22-19,.3-3-.5-5.68-.43-8.53.29-11,.15-22,.11-33,0-7.51.8-15.05-.92-22.52-.2-.87.64-2,.92-3,.73-2.66,1.09-5.4,0-8-2.55-5.95-8.42-8.91-12.66-13.33-1.12-1.17-4.61-.47-6.81.82"/><path class="cls-1" d="M76.7,100.21c3.17,0,6.33,0,9.5,0,6.8,0,11.48-4.7,11.5-11.5q0-11,0-22c0-6.8-4.7-11.46-11.5-11.5H76.7"/><path class="cls-1" d="M73.2,119.21c-20.83-.33-41.67-1.11-62.5,0"/><path class="cls-1" d="M73.7,38.21c-11-1.14-22-.32-33-.43-3.86,0-3.65,3.26-3.46,5.93.25,3.66-.78,6.71-4.06,8.46-3.79,2-8.95-1-10-5.45-.69-2.81.18-5.88-1.52-8.52-3.81-.67-7.67-1-11.56.38-5.68-6.3-5.52-6.25-1.55-14.95.59-1.3.64-3.48,1.29-4.86C12.54,13,22.7,11.14,27.7,15.22c2.06,1.68.66,4,1,6"/><path class="cls-1" d="M25.7,60.21c1,13,.29,26,.48,39,0,1.67.32,3.4-.48,5"/><path class="cls-1" d="M42,64.21q.12,20.25.25,40.5"/><path class="cls-1" d="M58.2,64.71v40"/><path class="cls-1" d="M54.2,18.71c1.35-4.35-.79-8.14-6.5-11.5s-10.25-2.58-15,2.52c-1.61,1.73-3,3.65-4.52,5.48"/></svg>