<svg id="Lag_1" data-name="Lag 1" xmlns="http://www.w3.org/2000/svg" viewBox="0 0 75.9 138.99"><defs><style>.cls-1{fill:none;stroke:#000;stroke-linecap:round;stroke-linejoin:round;stroke-width:2px;}</style></defs><title>beer2</title><path class="cls-1" d="M22.27,20.05c-6-1-7-.68-11.15,5.9-3.21,5.07-4.44,9.3-1,14.68,1.49,2.32.25,5.58.47,8.43,1.3,16.81,1.92,33.67,3.27,50.48.52,6.51-.59,13.28,2.38,19.51"/><path class="cls-1" d="M47.77,19.05c5-1.75,9.38-1.26,11.94,4a6.57,6.57,0,0,0,2.57,2.46c5.36,3.85,6.3,7.17,5.1,13.53-.89,4.73-.82,9.64-1.1,14.48-1.19,20-2.06,40-3.72,60-.39,4.73-.24,9.58-1.13,14.23-3.25,1.28-6.48.75-9.66.77-10.5.05-21-.08-31.5.07-3.7.05-5.19-1.92-5.45-5.06-.31-3.76,1.8-5,5.45-5.06,13.5-.43,27-.76,40.5.07"/><path class="cls-1" d="M65.77,41.05c-4-.77-8-1-11.94.45-.8,2.17-.51,4.37-.56,6.55-.12,4.69-2.74,7.41-7,7.52s-7.56-4-7.51-7.52a18.4,18.4,0,0,0-.9-7.61c-8.59.42-17.58-.44-26.59.61"/><path class="cls-1" d="M46.77,23.55c.57-6.11-3.37-12.14-8.5-13-6.83-1.15-14.34,3.29-15.38,9.52-.34,2,1.28,4.2.88,6.48"/></svg>